<svg xmlns="http://www.w3.org/2000/svg" width="11" height="15">
    <path fill="#02AFBF" fill-rule="evenodd" d="M10.277 14.999H.723a.732.732 0 0 1-.724-.739V.739c0-.408.325-.74.724-.74h7.304c.094 0 .18.04.242.103v.001l2.63 2.688a.352.352 0 0 1 .1.248V14.26a.731.731 0 0 1-.722.739zM8.37 1.199v1.452c0 .02.016.037.036.037h1.421L8.37 1.199zm1.942 2.192H8.406a.733.733 0 0 1-.723-.74V.702H.723a.037.037 0 0 0-.036.037V14.26c0 .021.016.037.036.037h9.554a.036.036 0 0 0 .035-.037V3.391zM8.539 9.745H2.46a.347.347 0 0 1-.344-.351c0-.193.154-.351.344-.351h6.079c.19 0 .343.158.343.351a.346.346 0 0 1-.343.351zm0-2.119H2.46a.347.347 0 0 1-.344-.351c0-.194.154-.351.344-.351h6.079c.19 0 .343.157.343.351a.347.347 0 0 1-.343.351zm0-2.119H2.46a.347.347 0 0 1-.344-.351c0-.194.154-.351.344-.351h6.079c.19 0 .343.157.343.351a.347.347 0 0 1-.343.351zM2.46 11.162h3.039c.19 0 .344.158.344.352a.347.347 0 0 1-.344.351H2.46a.347.347 0 0 1-.344-.351c0-.194.154-.352.344-.352z"/>
</svg>
