<svg xmlns="http://www.w3.org/2000/svg" width="15" height="15">
    <path fill="#017580" fill-rule="evenodd" d="M13.281.919a3.085 3.085 0 0 0-4.369 0L.903 8.941a.398.398 0 0 0-.114.229l-.593 4.404a.4.4 0 0 0 .396.456c.019 0 .036 0 .055-.002l2.647-.359a.404.404 0 0 0-.107-.8l-2.124.286.415-3.07 3.226 3.231a.393.393 0 0 0 .567 0l8.01-8.02a3.08 3.08 0 0 0 .906-2.19 3.07 3.07 0 0 0-.906-2.187zm-4.215.986l1.346 1.348-7.309 7.321-1.345-1.347 7.308-7.322zM4.99 12.463l-1.315-1.318 7.31-7.322L12.3 5.141l-7.31 7.322zm7.87-7.899L9.643 1.341a2.27 2.27 0 0 1 1.455-.523 2.277 2.277 0 0 1 2.283 2.288c0 .541-.184 1.049-.521 1.458z"/>
</svg>
