<svg xmlns="http://www.w3.org/2000/svg" width="21" height="19">
    <path fill="#A9A9A9" fill-rule="evenodd" d="M20.521 10.636c-2.324 3.289-6.071 5.252-10.023 5.252-1.037 0-2.06-.138-3.047-.398l1.923-1.971c.371.043.747.065 1.124.065 2.955 0 5.767-1.34 7.683-3.624a10.208 10.208 0 0 0-2.973-2.426l1.647-1.688a12.504 12.504 0 0 1 3.666 3.438l.478.676-.478.676zm-5.903-1.828c0 2.333-1.845 4.224-4.12 4.224a4.12 4.12 0 0 1-.602-.05l4.673-4.791c.028.202.049.407.049.617zm1.626-3.313l-1.68 1.724-.184.188-5.248 5.382-.581.596-1.839 1.885-3.263 3.347a1.25 1.25 0 0 1-1.801 0 1.331 1.331 0 0 1 0-1.846l2.578-2.643 1.654-1.696 1.216-1.247 1.615-1.657 1.265-1.297 1.766-1.812 1.075-1.102.835-.857L17.629.382a1.252 1.252 0 0 1 1.8 0 1.33 1.33 0 0 1 0 1.846l-3.185 3.267zm-5.384.851L9.666 7.571a1.11 1.11 0 0 0-.806-.348c-.625 0-1.133.519-1.133 1.16 0 .324.131.617.34.827l-1.314 1.348a4.302 4.302 0 0 1-.011-3.475A10.187 10.187 0 0 0 2.817 9.96a10.258 10.258 0 0 0 2.449 2.123l-1.627 1.668a12.494 12.494 0 0 1-3.163-3.115l-.477-.676.477-.676c2.323-3.288 6.07-5.252 10.022-5.252.806 0 1.603.086 2.381.244l-.675.691-1.344 1.379z"/>
</svg>
