<svg xmlns="http://www.w3.org/2000/svg" width="89" height="70">
    <path fill="gray" fill-rule="evenodd" d="M88.851 61.249h-7.509c-.707 4.982-4.99 8.75-10.261 8.75-5.272 0-9.555-3.768-10.261-8.75H28.031c-.707 4.982-4.99 8.75-10.262 8.75-5.271 0-9.554-3.768-10.261-8.75H5.182c-2.813 0-5.183-2.333-5.183-5.104V5.687c0-3.209 2.518-5.688 5.776-5.688h44.87c3.11 0 5.627 2.479 5.627 5.688V8.75h14.809c1.333 0 2.666.583 3.702 1.603l12.884 14c.887.875 1.332 2.042 1.332 3.355v33.541h-.148zm-71.082 5.833c4.147 0 7.405-3.208 7.405-7.292 0-4.083-3.258-7.291-7.405-7.291-4.146 0-7.405 3.208-7.405 7.291 0 4.084 3.259 7.292 7.405 7.292zM53.311 8.75V5.687a2.79 2.79 0 0 0-2.814-2.771H5.775c-1.63 0-2.814 1.167-2.814 2.771v14.729h14.808c.889 0 1.481.584 1.481 1.458 0 .875-.592 1.459-1.481 1.459H2.961v4.375h20.732c.889 0 1.481.583 1.481 1.458s-.592 1.458-1.481 1.458H2.961v10.208h50.35V8.75zm0 34.999H2.961v12.396c0 1.166 1.036 2.188 2.221 2.188h2.326c.663-4.673 4.471-8.275 9.29-8.706l.106-.007a10.437 10.437 0 0 1 1.366-.025c.123.005.244.015.365.025l.107.007c4.819.431 8.626 4.033 9.289 8.706h25.28V43.749zm17.77 23.333c4.146 0 7.404-3.208 7.404-7.292 0-4.083-3.258-7.291-7.404-7.291-4.147 0-7.405 3.208-7.405 7.291 0 4.084 3.258 7.292 7.405 7.292zm14.808-39.52c0-.437-.147-1.021-.592-1.313L77.152 17.5H63.676v14.583h22.213v-4.521zm0 17.645h-7.404c-.889 0-1.481-.583-1.481-1.458s.592-1.458 1.481-1.458h7.404v-7.292H63.232c-1.332 0-2.517-1.166-2.517-2.479V17.061c0-1.312 1.185-2.479 2.517-2.479h11.452l-2.122-2.333c-.444-.292-1.037-.583-1.481-.583H56.272v46.667h4.547c.663-4.673 4.471-8.275 9.289-8.706l.107-.007a10.37 10.37 0 0 1 1.366-.025c.123.005.245.015.366.025l.106.007c4.819.431 8.626 4.033 9.289 8.706v-.001h4.547V45.207zM71.081 56.874c1.629 0 2.962 1.312 2.962 2.917 0 1.604-1.333 2.917-2.962 2.917-1.629 0-2.961-1.313-2.961-2.917 0-1.605 1.332-2.917 2.961-2.917zm-53.312 0c1.63 0 2.963 1.312 2.963 2.917 0 1.604-1.333 2.917-2.963 2.917-1.628 0-2.961-1.313-2.961-2.917 0-1.605 1.333-2.917 2.961-2.917z"/>
</svg>
