<svg width="278" height="155" xmlns="http://www.w3.org/2000/svg">
 <metadata id="metadata8">image/svg+xml</metadata>
 <defs>
  <clipPath clipPathUnits="userSpaceOnUse" id="clipPath16">
   <path d="m-102.020602,363.459997l425.2,0l0,-283.46l-425.2,0l0,283.46z" id="path18"/>
  </clipPath>
 </defs>
 <g>
  <title>background</title>
  <rect fill="none" id="canvas_background" height="157" width="280" y="-1" x="-1"/>
 </g>
 <g>
  <title>Layer 1</title>
  <g id="g10" transform="matrix(1.25,0,0,-1.25,0,354.325) ">
   <g id="g12">
    <g id="g14" clip-path="url(#clipPath16)">
     <g id="g20">
      <path fill="#007448" fill-rule="nonzero" d="m219.454984,281.387204c-0.643,0.019 -6.612,0.197 -18.7,0.197c-12.765,0 -18.747,-2.466 -23.703,-9.761c-3.09,-4.55 -7.613,-12.005 -11.984,-19.214c-2.134,-3.52 -4.199,-6.924 -5.976,-9.789c-0.865,-1.389 -1.691,-2.797 -2.506,-4.183c-2.582,-4.394 -5.032,-8.569 -7.986,-11.01c1.06,-1.411 1.512,-1.94 1.512,-1.94c3.314,2.715 5.887,7.093 8.596,11.704c0.805,1.368 1.62,2.761 2.472,4.132c1.782,2.871 3.851,6.284 5.991,9.807c4.356,7.184 8.86,14.612 11.916,19.11c4.464,6.572 9.73,8.681 21.668,8.681c4.531,0 8.269,0.04 11.116,0.007l7.548,-0.2c0.664,0 1.211,0.528 1.226,1.196c0.022,0.676 -0.513,1.242 -1.19,1.263" id="path22"/>
     </g>
     <g id="g24">
      <path fill="#23493e" fill-rule="nonzero" d="m24.829,202.0742l-7.591,-26.353c-0.867,-3.074 -2.256,-3.652 -3.938,-3.652c-1.623,0 -3.188,0.578 -4.055,3.652l-7.587,26.353c-0.058,0.172 -0.058,0.351 -0.058,0.461c0,0.584 0.347,0.99 0.925,0.99l0.581,0c0.406,0 0.811,-0.233 1.042,-1.046l7.415,-26.125c0.52,-1.74 1.101,-2.084 1.737,-2.084c0.64,0 1.098,0.344 1.62,2.084l7.415,26.125c0.234,0.813 0.637,1.046 1.043,1.046l0.695,0c0.577,0 0.811,-0.35 0.811,-0.873c0,-0.173 0,-0.406 -0.055,-0.578" id="path26"/>
     </g>
     <g id="g28">
      <path fill="#23493e" fill-rule="nonzero" d="m31.773298,172.413098l-0.347,0c-0.578,0 -1.101,0.529 -1.101,1.107l0,28.905c0,0.578 0.523,1.1 1.101,1.1l0.347,0c0.581,0 1.104,-0.522 1.104,-1.1l0,-28.905c0,-0.578 -0.523,-1.107 -1.104,-1.107m0,36.843l-0.347,0c-0.578,0 -1.101,0.461 -1.101,1.1l0,4.286c0,0.584 0.523,1.1 1.101,1.1l0.347,0c0.581,0 1.104,-0.516 1.104,-1.1l0,-4.286c0,-0.639 -0.523,-1.1 -1.104,-1.1" id="path30"/>
     </g>
     <g id="g32">
      <path fill="#23493e" fill-rule="nonzero" d="m57.723493,188.811498l-4.461,0c-8.743,0 -11.756,-1.74 -11.756,-6.665l0,-0.75c0,-5.386 2.838,-7.064 6.312,-7.064c3.243,0 6.025,0.866 9.905,2.951l0,11.528zm1.393,-16.398l-0.292,0c-0.637,0 -1.16,0.529 -1.16,1.162l0,1.451c-2.834,-1.568 -6.255,-2.957 -9.846,-2.957c-4.344,0 -8.86,2.084 -8.86,9.327l0,0.75c0,5.971 3.765,8.922 14.304,8.922l4.461,0l0,2.084c0,6.025 -1.679,8.399 -7.298,8.399c-3.822,0 -5.503,-0.234 -8.224,-0.522l-0.234,0c-0.519,0 -1.097,0.233 -1.097,0.873l0,0.344c0,0.639 0.461,0.928 1.331,1.045c2.432,0.289 4.402,0.516 8.224,0.516c7.82,0 9.847,-4.402 9.847,-10.655l0,-19.577c0,-0.633 -0.52,-1.162 -1.156,-1.162" id="path34"/>
     </g>
     <g id="g36">
      <path fill="#23493e" fill-rule="nonzero" d="m93.345106,203.752896l-7.298,-26.353c-1.159,-4.286 -4.289,-5.448 -7.24,-5.448c-2.955,0 -6.026,1.162 -7.182,5.448l-7.301,26.353c-0.056,0.116 -0.056,0.295 -0.056,0.405c0,0.523 0.403,0.929 0.926,0.929l5.792,0c0.523,0 0.984,-0.406 1.159,-1.162l5.558,-24.269c0.234,-1.1 0.637,-1.444 1.104,-1.444c0.461,0 0.867,0.344 1.098,1.444l5.561,24.269c0.175,0.756 0.698,1.162 1.217,1.162l5.792,0c0.523,0 0.926,-0.406 0.926,-0.929c0,-0.11 0,-0.289 -0.056,-0.405" id="path38"/>
     </g>
     <g id="g40">
      <path fill="#23493e" fill-rule="nonzero" d="m113.672803,186.782201l-3.649,0c-5.27,0 -6.429,-1.685 -6.429,-4.925l0,-0.233c0,-2.835 1.276,-3.585 4.172,-3.585c2.084,0 4.227,0.695 5.906,1.617l0,7.126zm6.489,-14.369l-4.925,0c-0.636,0 -1.159,0.529 -1.159,1.162l0,0.929c-2.665,-1.623 -5.385,-2.552 -8.165,-2.552c-4.808,0 -10.022,1.857 -10.022,9.672l0,0.233c0,6.604 4.055,10.023 14.133,10.023l3.649,0l0,2.545c0,3.769 -1.679,4.691 -5.098,4.691c-3.704,0 -7.528,-0.228 -9.438,-0.461l-0.292,0c-0.578,0 -1.042,0.172 -1.042,0.984l0,3.707c0,0.64 0.348,1.045 1.098,1.218c2.318,0.467 5.678,0.929 9.674,0.929c8.224,0 12.746,-3.652 12.746,-11.068l0,-20.85c0,-0.633 -0.522,-1.162 -1.159,-1.162" id="path42"/>
     </g>
     <g id="g44">
      <path fill="#23493e" fill-rule="nonzero" d="m143.037992,199.005894c-3.127,0 -5.562,-0.812 -7.993,-2.084l0,-23.291c0,-0.634 -0.523,-1.218 -1.159,-1.218l-5.327,0c-0.637,0 -1.16,0.584 -1.16,1.218l0,30.294c0,0.64 0.523,1.162 1.16,1.162l5.038,0c0.636,0 1.159,-0.522 1.159,-1.162l0,-1.218c2.838,2.208 5.967,2.786 8.282,2.786c0.64,0 1.159,-0.523 1.159,-1.162l0,-4.169c0,-0.639 -0.519,-1.156 -1.159,-1.156" id="path46"/>
     </g>
     <g id="g48">
      <path fill="#23493e" fill-rule="nonzero" d="m166.669798,191.7627c0,4.52 -2.49,7.126 -6.081,7.126c-3.594,0 -6.197,-2.551 -6.197,-7.126l0,-0.228l12.278,0l0,0.228zm6.545,-5.675l-18.882,0l0,-0.172c0,-3.363 1.387,-7.36 6.951,-7.36c4.227,0 8.224,0.351 10.656,0.584l0.174,0c0.578,0 1.042,-0.295 1.042,-0.873l0,-3.818c0,-0.928 -0.174,-1.334 -1.216,-1.506c-3.763,-0.701 -6.026,-0.991 -11.237,-0.991c-5.792,0 -14.015,3.13 -14.015,14.541l0,4.287c0,9.038 5.038,14.713 13.901,14.713c8.919,0 13.782,-6.087 13.782,-14.713l0,-3.246c0,-0.923 -0.345,-1.446 -1.156,-1.446" id="path50"/>
     </g>
     <g id="g52">
      <path fill="#23493e" fill-rule="nonzero" d="m186.243986,209.427701l-5.559,0c-0.642,0 -1.162,0.522 -1.162,1.162l0,5.097c0,0.634 0.52,1.156 1.162,1.156l5.559,0c0.636,0 1.217,-0.522 1.217,-1.156l0,-5.097c0,-0.64 -0.581,-1.162 -1.217,-1.162m-7.529,-48.592c-1.273,0 -2.432,0.111 -3.822,0.344c-0.753,0.117 -1.1,0.462 -1.1,1.046l0,3.763c0,0.578 0.464,0.928 1.218,0.928l2.603,0c1.854,0 2.029,0.75 2.029,3.068l0,33.94c0,0.64 0.517,1.162 1.157,1.162l5.33,0c0.634,0 1.156,-0.522 1.156,-1.162l0,-33.94c0,-7.065 -3.185,-9.149 -8.571,-9.149" id="path54"/>
     </g>
     <g id="g56">
      <path fill="#23493e" fill-rule="nonzero" d="m212.599485,191.068394c0,4.753 -2.146,7.82 -6.201,7.82c-4.052,0 -6.195,-3.067 -6.195,-7.82l0,-4.691c0,-4.753 2.143,-7.822 6.195,-7.822c4.055,0 6.201,3.069 6.201,7.822l0,4.691zm-6.201,-19.116c-9.093,0 -13.843,6.142 -13.843,14.425l0,4.691c0,8.282 4.75,14.425 13.843,14.425c9.097,0 13.847,-6.143 13.847,-14.425l0,-4.691c0,-8.283 -4.75,-14.425 -13.847,-14.425" id="path58"/>
     </g>
     <g id="g60">
      <path fill="#ffc32d" fill-rule="nonzero" d="m107.010694,244.151898c-4.215,-5.202 -8.196,-10.111 -14.625,-10.111l-6.274,-0.102l-7.824,-0.003c-0.655,-0.065 -0.947,-0.532 -0.913,-1.187c0.031,-0.655 0.587,-1.171 1.241,-1.171l13.77,0c7.603,0 12.144,5.604 16.537,11.021c2.309,2.85 4.498,5.553 7.046,7.372c0,0 -1.112,0.88 -2.164,1.445c-2.515,-1.986 -4.682,-4.663 -6.794,-7.264" id="path62"/>
     </g>
     <g id="g64">
      <path fill="#ffc32d" fill-rule="nonzero" d="m200.053587,267.239697c-6.85,-10.877 -16.764,-26.359 -22.362,-35.032c-3.222,-4.986 -4.676,-8.133 -9.497,-10.936c-1.995,-1.157 -4.294,-1.968 -6.723,-1.968c-4.016,0 -7.824,2.17 -11.329,6.448c0,0 -0.452,0.529 -1.513,1.94c-2.898,3.856 -5.217,7.741 -7.283,11.2c-5.269,8.835 -9.432,15.811 -18.885,15.811c-2.244,0 -4.461,-0.557 -6.493,-1.7c0,0 1.427,-0.99 2.171,-1.66c1.352,0.602 2.865,0.9 4.322,0.9c8.055,0 11.713,-6.129 16.774,-14.608c2.078,-3.48 4.405,-7.382 7.338,-11.298c0.79,-1.076 1.531,-1.979 1.531,-1.979c4.027,-4.987 8.525,-7.515 13.367,-7.515c7.206,0 12.798,5.615 14.747,8.581c3.339,5.085 17.142,26.57 25.916,40.506c7.99,12.688 16.303,12.998 17.284,12.998l-7.588,0.2c-3.483,-1.925 -7.722,-5.45 -11.777,-11.888" id="path66"/>
     </g>
     <g id="g68">
      <path fill="#007448" fill-rule="nonzero" d="m142.813398,225.39549c-5.749,0 -9.908,6.401 -13.936,12.592c-1.027,1.58 -1.995,3.069 -2.997,4.471c-2.755,3.842 -5.319,6.8 -7.649,8.826c-0.744,0.67 -2.17,1.656 -2.17,1.656c-3.499,2.279 -7.314,2.35 -11.775,-0.119c-2.662,-1.476 -5.657,-4.191 -9.92,-9.125c-7.52,-8.697 -16.002,-9.751 -16.079,-9.76l7.824,0.002c3.031,1.54 6.643,4.132 10.118,8.15c3.406,3.945 5.902,6.346 8.033,7.797c4.064,2.763 7.239,2.714 9.542,1.531c1.052,-0.566 2.164,-1.445 2.164,-1.445c2.319,-1.866 5.036,-4.937 7.91,-8.946c0.972,-1.356 1.928,-2.826 2.937,-4.378c4.181,-6.428 8.915,-13.716 15.998,-13.716c1.872,0 3.695,0.437 5.353,1.353c0,0 -0.742,0.899 -1.532,1.975c-1.186,-0.591 -2.508,-0.864 -3.821,-0.864" id="path70"/>
     </g>
    </g>
   </g>
  </g>
 </g>
</svg>