<?xml version="1.0" standalone="no"?>
<!DOCTYPE svg PUBLIC "-//W3C//DTD SVG 20010904//EN"
 "http://www.w3.org/TR/2001/REC-SVG-20010904/DTD/svg10.dtd">
<svg version="1.0" xmlns="http://www.w3.org/2000/svg"
 width="700.000000pt" height="700.000000pt" viewBox="0 0 700.000000 700.000000"
 preserveAspectRatio="xMidYMid meet">
<metadata>
Created by potrace 1.11, written by Peter Selinger 2001-2013
</metadata>
<g transform="translate(0.000000,700.000000) scale(0.100000,-0.100000)"
fill="#000000" stroke="none">
<path d="M5815 5049 c-271 -15 -428 -46 -579 -117 -240 -113 -325 -219 -799
-997 -47 -77 -101 -165 -120 -195 -97 -157 -328 -538 -427 -705 -179 -301
-278 -445 -364 -528 l-40 -39 -23 29 c-58 71 -362 546 -407 634 -16 33 -135
214 -162 249 -158 198 -269 289 -418 342 -165 59 -390 50 -522 -21 l-37 -20
-56 28 c-80 40 -150 54 -239 48 -192 -12 -392 -136 -613 -379 -194 -213 -331
-342 -437 -412 -142 -93 -316 -172 -420 -191 -53 -9 -80 -23 -87 -44 -7 -24 8
-57 33 -70 9 -5 186 -8 402 -7 329 2 394 5 448 20 91 24 165 59 241 113 120
86 188 155 398 408 82 99 189 217 238 263 l88 82 46 -42 c141 -131 271 -296
483 -613 218 -325 329 -456 461 -547 155 -106 354 -126 518 -53 l36 16 94 -93
c52 -52 115 -108 140 -125 327 -224 701 -166 1018 157 47 49 154 204 345 502
33 51 92 143 131 203 39 61 246 385 460 720 439 691 484 758 556 846 195 238
443 394 659 414 71 7 103 61 60 100 -18 16 -42 19 -188 22 -352 7 -802 8 -917
2z m680 -124 c-57 -33 -183 -129 -235 -178 -161 -154 -213 -226 -651 -917
-155 -245 -301 -474 -324 -510 -84 -128 -358 -556 -384 -598 -107 -177 -235
-356 -301 -422 -217 -218 -492 -287 -729 -184 -90 40 -227 148 -289 228 l-23
30 59 60 c109 113 186 224 374 541 162 273 725 1191 836 1365 131 204 179 268
261 347 128 124 276 189 521 227 19 3 89 9 155 12 66 4 121 7 122 8 1 0 142 1
313 1 215 0 307 -3 295 -10z m-4155 -1290 c62 -8 164 -51 230 -95 123 -83 227
-214 411 -515 216 -352 270 -438 331 -524 33 -46 62 -89 64 -95 7 -18 -81 -42
-159 -45 -127 -5 -239 50 -365 177 -88 88 -129 142 -317 422 -215 319 -324
460 -453 583 -56 53 -59 58 -40 68 54 29 181 39 298 24z m-580 -10 l49 -16
-98 -97 c-53 -53 -164 -177 -245 -275 -81 -97 -175 -205 -209 -238 -118 -115
-233 -184 -356 -213 -81 -19 -416 -22 -387 -3 218 137 264 178 603 533 151
157 223 216 331 270 108 54 224 68 312 39z"/>
</g>
</svg>
