<svg width="512" height="512" xmlns="http://www.w3.org/2000/svg">
 <metadata id="metadata8">image/svg+xml</metadata>
 <defs>
  <clipPath id="clipPath16" clipPathUnits="userSpaceOnUse">
   <path id="path18" d="m-102.0206,363.46l425.2,0l0,-283.46l-425.2,0l0,283.46z"/>
  </clipPath>
 </defs>
 <g>
  <title>background</title>
  <rect x="-1" y="-1" width="514" height="514" id="canvas_background" fill="none"/>
 </g>
 <g>
  <title>Layer 1</title>
  <g stroke="null" id="svg_2">
   <g stroke="null" transform="matrix(3.510576357788331,0,0,-3.510576357788331,-13.612247037689713,894.6722666800484) " id="g20">
    <path stroke="null" id="path22" d="m147.251139,214.101784c-0.643,0.019 -6.612,0.197 -18.7,0.197c-12.765,0 -18.747,-2.466 -23.703,-9.761c-3.09,-4.55 -7.613,-12.005 -11.984,-19.214c-2.134,-3.52 -4.199,-6.924 -5.976,-9.789c-0.865,-1.389 -1.691,-2.797 -2.506,-4.183c-2.582,-4.394 -5.032,-8.569 -7.986,-11.01c1.06,-1.411 1.512,-1.94 1.512,-1.94c3.314,2.715 5.887,7.093 8.596,11.704c0.805,1.368 1.62,2.761 2.472,4.132c1.782,2.871 3.851,6.284 5.991,9.807c4.356,7.184 8.86,14.612 11.916,19.11c4.464,6.572 9.73,8.681 21.668,8.681c4.531,0 8.269,0.04 11.116,0.007l7.548,-0.2c0.664,0 1.211,0.528 1.226,1.196c0.022,0.676 -0.513,1.242 -1.19,1.263" fill-rule="nonzero" fill="#007448"/>
   </g>
   <g stroke="null" transform="matrix(3.510576357788331,0,0,-3.510576357788331,-13.612247037689713,894.6722666800484) " id="g60">
    <path stroke="null" id="path62" d="m34.806849,176.866484c-4.215,-5.202 -8.196,-10.111 -14.625,-10.111l-6.274,-0.102l-7.824,-0.003c-0.655,-0.065 -0.947,-0.532 -0.913,-1.187c0.031,-0.655 0.587,-1.171 1.241,-1.171l13.77,0c7.603,0 12.144,5.604 16.537,11.021c2.309,2.85 4.498,5.553 7.046,7.372c0,0 -1.112,0.88 -2.164,1.445c-2.515,-1.986 -4.682,-4.663 -6.794,-7.264" fill-rule="nonzero" fill="#ffc32d"/>
   </g>
   <g stroke="null" transform="matrix(3.510576357788331,0,0,-3.510576357788331,-13.612247037689713,894.6722666800484) " id="g64">
    <path stroke="null" id="path66" d="m127.849749,199.954284c-6.85,-10.877 -16.764,-26.359 -22.362,-35.032c-3.222,-4.986 -4.676,-8.133 -9.497,-10.936c-1.995,-1.157 -4.294,-1.968 -6.723,-1.968c-4.016,0 -7.824,2.17 -11.329,6.448c0,0 -0.452,0.529 -1.513,1.94c-2.898,3.856 -5.217,7.741 -7.283,11.2c-5.269,8.835 -9.432,15.811 -18.885,15.811c-2.244,0 -4.461,-0.557 -6.493,-1.7c0,0 1.427,-0.99 2.171,-1.66c1.352,0.602 2.865,0.9 4.322,0.9c8.055,0 11.713,-6.129 16.774,-14.608c2.078,-3.48 4.405,-7.382 7.338,-11.298c0.79,-1.076 1.531,-1.979 1.531,-1.979c4.027,-4.987 8.525,-7.515 13.367,-7.515c7.206,0 12.798,5.615 14.747,8.581c3.339,5.085 17.142,26.57 25.916,40.506c7.99,12.688 16.303,12.998 17.284,12.998l-7.588,0.2c-3.483,-1.925 -7.722,-5.45 -11.777,-11.888" fill-rule="nonzero" fill="#ffc32d"/>
   </g>
   <g stroke="null" transform="matrix(3.510576357788331,0,0,-3.510576357788331,-13.612247037689713,894.6722666800484) " id="g68">
    <path stroke="null" id="path70" d="m70.609559,158.110074c-5.749,0 -9.908,6.401 -13.936,12.592c-1.027,1.58 -1.995,3.069 -2.997,4.471c-2.755,3.842 -5.319,6.8 -7.649,8.826c-0.744,0.67 -2.17,1.656 -2.17,1.656c-3.499,2.279 -7.314,2.35 -11.775,-0.119c-2.662,-1.476 -5.657,-4.191 -9.92,-9.125c-7.52,-8.697 -16.002,-9.751 -16.079,-9.76l7.824,0.002c3.031,1.54 6.643,4.132 10.118,8.15c3.406,3.945 5.902,6.346 8.033,7.797c4.064,2.763 7.239,2.714 9.542,1.531c1.052,-0.566 2.164,-1.445 2.164,-1.445c2.319,-1.866 5.036,-4.937 7.91,-8.946c0.972,-1.356 1.928,-2.826 2.937,-4.378c4.181,-6.428 8.915,-13.716 15.998,-13.716c1.872,0 3.695,0.437 5.353,1.353c0,0 -0.742,0.899 -1.532,1.975c-1.186,-0.591 -2.508,-0.864 -3.821,-0.864" fill-rule="nonzero" fill="#007448"/>
   </g>
  </g>
 </g>
</svg>